<svg style="position: absolute; width: 0; height: 0;" width="0" height="0" version="1.1" xmlns="http://www.w3.org/2000/svg" xmlns:xlink="http://www.w3.org/1999/xlink">
<defs>
<symbol id="icon-cancel_circle" viewBox="0 0 1024 1024">
	<title>cancel_circle</title>
	<path class="path1" d="M726 666l-154-154 154-154-60-60-154 154-154-154-60 60 154 154-154 154 60 60 154-154 154 154zM512 86q176 0 301 125t125 301-125 301-301 125-301-125-125-301 125-301 301-125z"></path>
</symbol>
<symbol id="icon-add_circle" viewBox="0 0 1024 1024">
	<title>add_circle</title>
	<path class="path1" d="M726 554v-84h-172v-172h-84v172h-172v84h172v172h84v-172h172zM512 86q176 0 301 125t125 301-125 301-301 125-301-125-125-301 125-301 301-125z"></path>
</symbol>
<symbol id="icon-remove_circle" viewBox="0 0 1024 1024">
	<title>remove_circle</title>
	<path class="path1" d="M726 554v-84h-428v84h428zM512 86q176 0 301 125t125 301-125 301-301 125-301-125-125-301 125-301 301-125z"></path>
</symbol>
<symbol id="icon-chevron-down" viewBox="0 0 1024 1024">
	<title>chevron-down</title>
	<path class="path1" d="M316 334l196 196 196-196 60 60-256 256-256-256z"></path>
</symbol>
<symbol id="icon-chevron-left" viewBox="0 0 1024 1024">
	<title>chevron-left</title>
	<path class="path1" d="M658 686l-60 60-256-256 256-256 60 60-196 196z"></path>
</symbol>
<symbol id="icon-chevron-right" viewBox="0 0 1024 1024">
	<title>chevron-right</title>
	<path class="path1" d="M366 698l196-196-196-196 60-60 256 256-256 256z"></path>
</symbol>
<symbol id="icon-chevron-up" viewBox="0 0 1024 1024">
	<title>chevron-up</title>
	<path class="path1" d="M316 658l-60-60 256-256 256 256-60 60-196-196z"></path>
</symbol>
<symbol id="icon-arrow_drop_down" viewBox="0 0 1024 1024">
	<title>arrow_drop_down</title>
	<path class="path1" d="M298 426h428l-214 214z"></path>
</symbol>
<symbol id="icon-arrow_drop_up" viewBox="0 0 1024 1024">
	<title>arrow_drop_up</title>
	<path class="path1" d="M298 598l214-214 214 214h-428z"></path>
</symbol>
<symbol id="icon-cancel" viewBox="0 0 1024 1024">
	<title>cancel</title>
	<path class="path1" d="M810 274l-238 238 238 238-60 60-238-238-238 238-60-60 238-238-238-238 60-60 238 238 238-238z"></path>
</symbol>
<symbol id="icon-unfold_less" viewBox="0 0 1024 1024">
	<title>unfold_less</title>
	<path class="path1" d="M708 230l-196 196-196-196 60-60 136 136 136-136zM316 794l196-196 196 196-60 60-136-136-136 136z"></path>
</symbol>
<symbol id="icon-unfold_more" viewBox="0 0 1024 1024">
	<title>unfold_more</title>
	<path class="path1" d="M512 776l136-136 60 60-196 196-196-196 60-60zM512 248l-136 136-60-60 196-196 196 196-60 60z"></path>
</symbol>
</defs>
</svg>
